<svg xmlns="http://www.w3.org/2000/svg" version="1.1" xmlns:xlink="http://www.w3.org/1999/xlink" xmlns:svgjs="http://svgjs.dev/svgjs" width="1128" height="1294"><svg width="1128" height="1294" viewBox="0 0 1128 1294" fill="none" xmlns="http://www.w3.org/2000/svg">
<rect y="166" width="1128" height="1128" rx="564" fill="#06D6A0"></rect>
<path d="M646.432 348.6C649.699 351.867 650.165 355.6 647.832 359.8C643.165 365.867 638.499 371.7 633.832 377.3C629.165 382.9 624.499 388.5 619.832 394.1C615.165 399.7 611.665 403.9 609.332 406.7C606.999 409.5 604.665 412.3 602.332 415.1C600.465 418.367 597.199 422.8 592.532 428.4C591.132 430.267 589.265 431.2 586.932 431.2C584.599 431.667 582.499 430.967 580.632 429.1L533.732 385C530.465 381.733 530.232 378.233 533.032 374.5C542.365 362.833 551.699 351.4 561.032 340.2C569.899 329 578.765 317.567 587.632 305.9C589.032 304.033 590.899 302.867 593.232 302.4C596.032 301.933 598.365 302.633 600.232 304.5L646.432 348.6ZM814 996.1C820.533 996.1 823.8 999.133 823.8 1005.2C823.8 1007.53 822.867 1009.63 821 1011.5C793 1045.1 755.667 1072.87 709 1094.8C686.133 1105.53 661.867 1114.4 636.2 1121.4C610.533 1128.87 581.833 1132.6 550.1 1132.6C529.1 1132.6 509.967 1130.27 492.7 1125.6C475.433 1121.4 459.333 1115.8 444.4 1108.8C421.533 1097.13 403.1 1079.87 389.1 1057C375.1 1034.6 368.1 1006.37 368.1 972.3C368.1 949.433 372.067 925.167 380 899.5C388.4 874.3 398.9 849.8 411.5 826C424.567 801.733 437.867 780.033 451.4 760.9C464.933 741.767 477.3 726.833 488.5 716.1C471.233 693.7 462.6 668.967 462.6 641.9C462.6 635.833 463.067 630.467 464 625.8C464.933 620.667 465.867 615.533 466.8 610.4H466.1C474.5 567.467 491.067 537.133 515.8 519.4C526.067 512.4 540.533 506.1 559.2 500.5C577.867 494.9 597.467 492.1 618 492.1C636.667 492.1 653.933 495.367 669.8 501.9C687.533 509.833 696.4 523.6 696.4 543.2C696.4 553.933 694.067 565.6 689.4 578.2C684.733 592.2 679.833 605.733 674.7 618.8C669.567 631.4 663.5 642.367 656.5 651.7C646.233 666.167 634.567 679.467 621.5 691.6C608.433 703.733 595.367 715.633 582.3 727.3C577.633 731.967 572.5 736.4 566.9 740.6C561.767 744.8 556.633 749.467 551.5 754.6L530.5 774.2V773.5C510.433 791.7 490.6 811.767 471 833.7C451.867 855.633 436.233 879.667 424.1 905.8C419.9 914.667 417.8 923.3 417.8 931.7C417.8 936.367 418.733 940.567 420.6 944.3C422.467 948.033 424.567 951.3 426.9 954.1C468.9 1001.23 530.733 1024.8 612.4 1024.8H620.8C653 1024.8 684.967 1022 716.7 1016.4C748.9 1010.8 778.067 1004.73 804.2 998.2C808.4 996.8 811.667 996.1 814 996.1ZM539.6 635.6C542.4 639.8 545.2 644.233 548 648.9C551.267 653.1 554.067 657.533 556.4 662.2L592.1 637C604.7 629.067 616.833 619.967 628.5 609.7C622.9 599.433 611 594.3 592.8 594.3C584.4 594.3 576 595 567.6 596.4C559.2 597.8 551.967 599.2 545.9 600.6C541.233 601.533 536.8 602.7 532.6 604.1C528.867 605.033 525.833 606.2 523.5 607.6C525.833 613.2 528.167 618.333 530.5 623C533.3 627.2 536.333 631.633 539.6 636.3V635.6Z" fill="white"></path>
</svg><style>@media (prefers-color-scheme: light) { :root { filter: none; } }
@media (prefers-color-scheme: dark) { :root { filter: none; } }
</style></svg>